{"title":"Harry Potter And The Deathly Hallows (Part 2) 2011 DVDRip Stumpi","uid":6753140,"size":1580924074,"categoryP":"video","categoryS":"movies","magnet":"?xt=urn:btih:79702a831e929fc2627c208d2c3b2f9cc198a630&amp;dn=Harry+Potter+And+The+Deathly+Hallows+%28Part+2%29+2011+DVDRip+Stumpi&amp;tr=udp%3A%2F%2Ftracker.openbittorrent.com%3A80&amp;tr=udp%3A%2F%2Fopen.demonii.com%3A1337&amp;tr=udp%3A%2F%2Ftracker.coppersurfer.tk%3A6969&amp;tr=udp%3A%2F%2Fexodus.desync.com%3A6969","seeders":0,"leechers":0,"uploader":"stumpie1971","files":-1,"time":1318899150,"description":" &lt;a href=&quot; http://www.hotimg.com/direct/uYNuufq.jpg&quot; rel=&quot;nofollow&quot; target=&quot;_NEW&quot;&gt; http://www.hotimg.com/direct/uYNuufq.jpg&lt;/a&gt;\n\nScreens:\n  &lt;a href=&quot;\nhttp://www.hotimg.com/direct/d53tKB8.jpg&quot; rel=&quot;nofollow&quot; target=&quot;_NEW&quot;&gt;\nhttp://www.hotimg.com/direct/d53tKB8.jpg&lt;/a&gt;\n  &lt;a href=&quot;\nhttp://www.hotimg.com/direct/aXzxAZ7.jpg&quot; rel=&quot;nofollow&quot; target=&quot;_NEW&quot;&gt;\nhttp://www.hotimg.com/direct/aXzxAZ7.jpg&lt;/a&gt;\n  &lt;a href=&quot;\nhttp://www.hotimg.com/direct/5764UTY.jpg&quot; rel=&quot;nofollow&quot; target=&quot;_NEW&quot;&gt;\nhttp://www.hotimg.com/direct/5764UTY.jpg&lt;/a&gt;\n  &lt;a href=&quot;\nhttp://www.hotimg.com/direct/uqsxQvk.jpg&quot; rel=&quot;nofollow&quot; target=&quot;_NEW&quot;&gt;\nhttp://www.hotimg.com/direct/uqsxQvk.jpg&lt;/a&gt;\n\nAlternative:\n  &lt;a href=&quot;\nhttp://www.postimg.com/image/50000/photo-49587.jpg&quot; rel=&quot;nofollow&quot; target=&quot;_NEW&quot;&gt;\nhttp://www.postimg.com/image/50000/photo-49587.jpg&lt;/a&gt;\n  &lt;a href=&quot;\nhttp://www.postimg.com/image/50000/photo-49588.jpg&quot; rel=&quot;nofollow&quot; target=&quot;_NEW&quot;&gt;\nhttp://www.postimg.com/image/50000/photo-49588.jpg&lt;/a&gt;\n  &lt;a href=&quot;\nhttp://www.postimg.com/image/50000/photo-49589.jpg&quot; rel=&quot;nofollow&quot; target=&quot;_NEW&quot;&gt;\nhttp://www.postimg.com/image/50000/photo-49589.jpg&lt;/a&gt;\n  &lt;a href=&quot;\nhttp://www.postimg.com/image/50000/photo-49590.jpg&quot; rel=&quot;nofollow&quot; target=&quot;_NEW&quot;&gt;\nhttp://www.postimg.com/image/50000/photo-49590.jpg&lt;/a&gt;\n\nScreenCaps:\n  &lt;a href=&quot;\nhttp://www.postimg.com/image/50000/photo-49591.jpg&quot; rel=&quot;nofollow&quot; target=&quot;_NEW&quot;&gt;\nhttp://www.postimg.com/image/50000/photo-49591.jpg&lt;/a&gt;\n\nHarry Potter and the Deathly Hallows Part 2 (2011) DVDRip XviD-MAX\nFormat                           : AVI\nFormat/Info                      : Audio Video Interleave\nFormat profile                   : OpenDML\nFile size                        : 1.46 GiB\nDuration                         : 2h 5mn\nOverall bit rate                 : 1 675 Kbps\nWriting application              : VirtualDubMod 1.5.10.2 (build 2542/release)\nWriting library                  : VirtualDubMod build 2542/release\nOriginal source form             : MAX TORRENTZ\nCopyright                        : SIGISMUNT\n\nVideo\nID                               : 0\nFormat                           : MPEG-4 Visual\nFormat profile                   : AdvancedSimple@L5\nFormat settings, BVOP            : No\nFormat settings, QPel            : No\nFormat settings, GMC             : No warppoints\nFormat settings, Matrix          : Custom\nCodec ID                         : XVID\nCodec ID/Hint                    : XviD\nDuration                         : 2h 5mn\nBit rate                         : 1 478 Kbps\nWidth                            : 672 pixels\nHeight                           : 288 pixels\nDisplay aspect ratio             : 2.35:1\nFrame rate                       : 29.970 fps\nResolution                       : 24 bits\nColorimetry                      : 4:2:0\nScan type                        : Progressive\nBits/(Pixel*Frame)               : 0.255\nStream size                      : 1.29 GiB (88%)\nWriting library                  : XviD 1.2.1 (UTC 2008-12-04)\n\nAudio\nID                               : 1\nFormat                           : MPEG Audio\nFormat version                   : Version 1\nFormat profile                   : Layer 3\nCodec ID                         : 55\nCodec ID/Hint                    : MP3\nDuration                         : 2h 5mn\nBit rate mode                    : Constant\nBit rate                         : 192 Kbps\nChannel(s)                       : 2 channels\nSampling rate                    : 48.0 KHz\nResolution                       : 16 bits\nStream size                      : 172 MiB (11%)\nAlignment                        : Aligned on interleaves\nInterleave, duration             : 511 ms (15.30 video frames)\nInterleave, preload duration     : 216 ms\n\nSource: DVDRip (perfect a/v/sync quality,sample included)\nThis torrent is not seedbox supported,please seed it to the MAX\n \n\nPLEASE SEED &amp; ENJOY - MANY THANKS (Stumpie1971)","torrent":{"xt":"urn:btih:79702a831e929fc2627c208d2c3b2f9cc198a630","amp;dn":"Harry+Potter+And+The+Deathly+Hallows+%28Part+2%29+2011+DVDRip+Stumpi","amp;tr":["udp%3A%2F%2Ftracker.openbittorrent.com%3A80","udp%3A%2F%2Fopen.demonii.com%3A1337","udp%3A%2F%2Ftracker.coppersurfer.tk%3A6969","udp%3A%2F%2Fexodus.desync.com%3A6969"],"infoHash":"79702a831e929fc2627c208d2c3b2f9cc198a630","infoHashBuffer":{"type":"Buffer","data":[121,112,42,131,30,146,159,194,98,124,32,141,44,59,47,156,193,152,166,48]},"announce":[],"urlList":[]}}